<svg version="1.0" xmlns="http://www.w3.org/2000/svg"
 width="1280.000000pt" height="1280.000000pt" viewBox="0 0 1280.000000 1280.000000"
 preserveAspectRatio="xMidYMid meet">
<metadata>
Created by potrace 1.15, written by Peter Selinger 2001-2017
</metadata>
<g transform="translate(0.000000,1280.000000) scale(0.100000,-0.100000)"
fill="#FFFFFF" stroke="none">
<path d="M6085 7514 c-44 -8 -219 -25 -390 -39 -356 -29 -381 -33 -396 -51
-14 -17 -8 -19 91 -34 41 -6 86 -19 100 -28 37 -26 67 -96 85 -192 33 -182 51
-2076 26 -2750 -24 -648 -62 -1188 -87 -1227 -8 -12 -14 -29 -14 -37 0 -18 73
6 269 89 164 69 290 112 357 120 l51 7 -33 97 c-18 53 -37 125 -43 161 -18
123 -34 687 -29 1026 6 327 6 336 28 359 11 12 37 25 57 28 33 6 42 1 127 -71
173 -145 237 -205 319 -301 220 -255 387 -451 428 -502 25 -31 76 -83 115
-116 38 -33 152 -149 254 -258 308 -331 387 -407 460 -443 89 -44 137 -47 335
-23 263 32 491 44 640 33 72 -5 133 -7 138 -5 20 11 0 21 -73 36 -101 19 -199
68 -315 154 -106 79 -954 922 -1197 1190 -252 278 -598 684 -598 702 0 5 264
207 588 449 567 425 951 725 959 748 3 8 -110 13 -404 18 -224 4 -437 9 -473
12 -81 6 -61 -10 25 -21 127 -15 161 -50 130 -132 -52 -143 -167 -287 -425
-533 -101 -96 -258 -247 -349 -335 -242 -233 -355 -327 -504 -417 -89 -53
-236 -114 -246 -101 -11 12 6 866 23 1248 19 394 42 824 56 1010 5 71 6 133 2
136 -4 3 -43 0 -87 -7z"/>
</g>
</svg>
